<svg xmlns="http://www.w3.org/2000/svg" width="22.624" height="27.337" viewBox="0 0 22.624 27.337">
  <path id="Union_1" data-name="Union 1" d="M-757.513-4245.169a1,1,0,0,1,0-1.415l8.606-8.6h-22.924a1,1,0,0,1-1-1,1,1,0,0,1,1-1h22.923l-8.6-8.6a1,1,0,0,1,0-1.414,1,1,0,0,1,1.415,0l10.311,10.312h0l.009.01.007.007,0,0a.994.994,0,0,1,.221.366v0l.006.019,0,.006,0,.016,0,.009,0,.013,0,.012,0,.011,0,.013,0,.011,0,.014,0,.01,0,.015,0,.01,0,.014v.01l0,.014v.064s0,.006,0,.009,0,.013,0,.019,0,0,0,.005,0,.017,0,.025h0c0,.008,0,.017,0,.025v.049c0,.005,0,.01,0,.015v.009l0,.015v.009l0,.016v.008l0,.015,0,.01,0,.014,0,.011,0,.011,0,.015,0,.008,0,.018v0a.994.994,0,0,1-.26.455l-10.312,10.312a1,1,0,0,1-.708.293A1,1,0,0,1-757.513-4245.169Z" transform="translate(-4244.876 772.831) rotate(90)" fill="#fff"/>
</svg>
