<svg class="play" xmlns="http://www.w3.org/2000/svg" width="215" height="215" viewBox="0 0 215 215">
  <g id="Group_168" data-name="Group 168" transform="translate(-732 -300)">
    <g id="Path_154" data-name="Path 154" transform="translate(732 300)" fill="none">
      <path d="M107.5,0A107.5,107.5,0,1,1,0,107.5,107.5,107.5,0,0,1,107.5,0Z" stroke="none"/>
      <path class="hover" d="M 107.5 4 C 100.4750289916992 4 93.4556884765625 4.707504272460938 86.63690185546875 6.102813720703125 C 79.99346923828125 7.462249755859375 73.45878601074219 9.490753173828125 67.21437072753906 12.13191223144531 C 61.08244323730469 14.72549438476562 55.16787719726562 17.93583679199219 49.63496398925781 21.67381286621094 C 44.15359497070312 25.37693786621094 38.99903869628906 29.62986755371094 34.31446838378906 34.31446838378906 C 29.62986755371094 38.99903869628906 25.37693786621094 44.15359497070312 21.67381286621094 49.63496398925781 C 17.93583679199219 55.16787719726562 14.72549438476562 61.08244323730469 12.13191223144531 67.21437072753906 C 9.490753173828125 73.45878601074219 7.462249755859375 79.99346923828125 6.102813720703125 86.63690185546875 C 4.707504272460938 93.4556884765625 4 100.4750289916992 4 107.5 C 4 114.5249710083008 4.707504272460938 121.5443115234375 6.102813720703125 128.3630981445312 C 7.462249755859375 135.0065307617188 9.490753173828125 141.5412292480469 12.13191223144531 147.7856140136719 C 14.72549438476562 153.9175720214844 17.93583679199219 159.8321228027344 21.67381286621094 165.3650360107422 C 25.37693786621094 170.8464050292969 29.62986755371094 176.0009765625 34.31446838378906 180.6855316162109 C 38.99903869628906 185.3701171875 44.15359497070312 189.6230621337891 49.63496398925781 193.3261871337891 C 55.16787719726562 197.0641479492188 61.08244323730469 200.2745056152344 67.21437072753906 202.8680877685547 C 73.45878601074219 205.5092468261719 79.99346923828125 207.5377502441406 86.63690185546875 208.8971862792969 C 93.4556884765625 210.2924957275391 100.4750289916992 211 107.5 211 C 114.5249710083008 211 121.5443115234375 210.2924957275391 128.3630981445312 208.8971862792969 C 135.0065307617188 207.5377502441406 141.5412292480469 205.5092468261719 147.7856140136719 202.8680877685547 C 153.9175720214844 200.2745056152344 159.8321228027344 197.0641479492188 165.3650360107422 193.3261871337891 C 170.8464050292969 189.6230621337891 176.0009765625 185.3701171875 180.6855316162109 180.6855316162109 C 185.3701171875 176.0009765625 189.6230621337891 170.8464050292969 193.3261871337891 165.3650360107422 C 197.0641479492188 159.8321228027344 200.2745056152344 153.9175720214844 202.8680877685547 147.7856140136719 C 205.5092468261719 141.5412292480469 207.5377502441406 135.0065307617188 208.8971862792969 128.3630981445312 C 210.2924957275391 121.5443115234375 211 114.5249710083008 211 107.5 C 211 100.4750289916992 210.2924957275391 93.4556884765625 208.8971862792969 86.63690185546875 C 207.5377502441406 79.99346923828125 205.5092468261719 73.45878601074219 202.8680877685547 67.21437072753906 C 200.2745056152344 61.08244323730469 197.0641479492188 55.16787719726562 193.3261871337891 49.63496398925781 C 189.6230621337891 44.15359497070312 185.3701171875 38.99903869628906 180.6855316162109 34.31446838378906 C 176.0009765625 29.62986755371094 170.8464050292969 25.37693786621094 165.3650360107422 21.67381286621094 C 159.8321228027344 17.93583679199219 153.9175720214844 14.72549438476562 147.7856140136719 12.13191223144531 C 141.5412292480469 9.490753173828125 135.0065307617188 7.462249755859375 128.3630981445312 6.102813720703125 C 121.5443115234375 4.707504272460938 114.5249710083008 4 107.5 4 M 107.5 0 C 166.8705902099609 0 215 48.12940979003906 215 107.5 C 215 166.8705902099609 166.8705902099609 215 107.5 215 C 48.12940979003906 215 0 166.8705902099609 0 107.5 C 0 48.12940979003906 48.12940979003906 0 107.5 0 Z" stroke="none" fill="#efefef"/>
    </g>
    <path class="hover" data-name="Polygon 1" d="M27,0,54,48H0Z" transform="translate(870 381) rotate(90)" fill="#efefef"/>
  </g>
</svg>
