<?xml version="1.0" encoding="UTF-8"?>
<svg id="Layer_1" xmlns="http://www.w3.org/2000/svg" version="1.1" viewBox="0 0 625 625">
  <!-- Generator: Adobe Illustrator 30.2.1, SVG Export Plug-In . SVG Version: 2.1.1 Build 1)  -->
  <defs>
    <style>
      .st0 {
        fill: #fff;
      }
    </style>
  </defs>
  <path class="st0" d="M597.4,2.8H27.6C13.9,2.8,2.8,13.9,2.8,27.6v569.8c0,13.7,11.1,24.8,24.8,24.8h569.8c13.7,0,24.8-11.1,24.8-24.8V27.6c0-13.7-11.1-24.8-24.8-24.8ZM525.9,183.6h-49.5c-38.8,0-46.3,18.4-46.3,45.5v59.7h92.6l-12.1,93.4h-80.5v239.9h-96.5v-239.8h-80.7v-93.5h80.7v-68.9c0-80,48.8-123.6,120.2-123.6s63.6,2.6,72.2,3.7v83.5h0Z"/>
</svg>