<?xml version="1.0" encoding="UTF-8"?>
<svg id="Layer_1" xmlns="http://www.w3.org/2000/svg" version="1.1" viewBox="0 0 800 800">
  <!-- Generator: Adobe Illustrator 30.2.1, SVG Export Plug-In . SVG Version: 2.1.1 Build 1)  -->
  <defs>
    <style>
      .st0 {
        fill: #fff;
      }
    </style>
  </defs>
  <g id="_x37_935ec95c421cee6d86eb22ecd1368a9">
    <path class="st0" d="M53.7.8h71.8l46.3,142.3h4.5L220.3.8h72.4l-83,208.3v147.8h-71.3v-141.2L53.7.8ZM300.3,154.2c0-20.9,8.6-37.5,25.8-49.9,17.2-12.4,40.2-18.6,69.2-18.6s48,6.6,64.9,19.6c16.9,13.1,25.3,29.9,25.3,50.4v139.4c0,23.1-8.3,41.2-24.8,54.3-16.5,13.1-39.3,19.7-68.3,19.7s-50.2-6.8-67-20.4c-16.7-13.6-25.1-31.8-25.1-54.8v-139.9ZM365.9,299.1c0,7.4,2.3,13.1,6.8,17.2,4.5,4.1,11,6,19.5,6s15.5-2,20.6-6.2c5.1-4.2,7.6-9.9,7.6-17.1v-147c0-5.9-2.6-10.6-7.8-14.3-5.2-3.6-12-5.5-20.4-5.5s-14.1,1.8-19,5.5c-4.9,3.6-7.3,8.4-7.3,14.3v147h0ZM718.7,90v269.9h-63.9v-29.8c-11.8,11-24,19.3-36.8,25.1-12.7,5.7-25.1,8.6-37.1,8.6s-25.9-4-33.4-12c-7.5-8-11.2-20.1-11.2-36.1V90h63.9v206.9c0,6.4,1.3,11,4,13.9,2.7,2.8,7,4.3,13,4.3s10.7-1.9,17.8-5.7c7.2-3.8,13.8-8.6,19.8-14.5V90h63.9ZM658.9,567.6c-3.1-3.5-8.1-5.3-15-5.3s-12.3,1.8-15.4,5.3c-3.1,3.5-4.7,9.3-4.7,17.4v16.8h39.8v-16.8c0-8.1-1.6-13.9-4.7-17.4ZM470.1,694.1c3.4,1.4,7.1,2.1,10.9,2.1,5.5,0,9.6-1.3,12.2-4.1,2.6-2.7,3.9-7.2,3.9-13.3v-97.2c0-6.5-1.6-11.5-4.8-14.9-3.2-3.4-7.9-5.1-14-5.1s-6.4.6-9.5,1.9c-3.1,1.3-6.2,3.3-9.3,5.9v117.8c3.7,3.2,7.2,5.5,10.7,6.8ZM766.4,488.4c0-46.8-48.1-84.7-107.3-84.7-84.5-2.8-170.9-4.1-259.1-3.9-88.2-.2-174.6,1.1-259.1,3.9-59.2,0-107.2,37.9-107.2,84.7-3.6,37-5.1,74-5,111.1-.1,37,1.4,74.1,5,111.1,0,46.7,48,84.7,107.2,84.7,84.5,2.8,171,4.1,259.1,3.9,88.2.1,174.6-1.1,259.1-3.9,59.2,0,107.3-37.9,107.3-84.7,3.5-37,5.1-74.1,4.9-111.1.2-37-1.4-74.1-4.9-111.1ZM189.5,724.2v2.8h-50.7v-224.4h-52.5v-40.9h155.7v40.9h-52.5v221.6h0ZM370,533.3v193.6h-45v-21.4c-8.3,7.9-16.9,13.9-25.9,18-9,4.1-17.7,6.2-26.2,6.2s-18.3-2.9-23.5-8.6c-5.3-5.8-7.9-14.4-7.9-26v-164.6h45.1v148.4c0,4.6.9,7.9,2.8,9.9,1.9,2.1,5,3.1,9.2,3.1s7.5-1.4,12.6-4.1c5-2.7,9.7-6.2,13.9-10.4v-147h45v2.8ZM543.4,579.4v107.4c0,13.8-3.5,24.3-10.6,31.6-7.1,7.3-17.3,10.9-30.6,10.9s-16.6-1.4-23.5-4.2c-6.9-2.8-13.3-7.2-19.3-13.1v14.9h-45.5v-265.3h45.5v84.5c6.1-5.9,12.5-10.4,19.3-13.5,6.8-3.1,13.8-4.6,20.7-4.6,14.2,0,25.1,4.1,32.6,12.4,7.5,8.3,11.3,20.3,11.3,36.1v2.8h0ZM709.9,585.4v49.3h-86.2v33.7c0,10.2,1.5,17.2,4.4,21.2,3,3.9,8.1,5.9,15.2,5.9s12.7-1.7,15.7-5c3-3.3,4.4-10.7,4.4-22.1v-13.4h46.4v17.3c0,19.8-5.6,34.8-16.9,44.8-11.3,10.1-28.1,15-50.6,15s-36-5.3-47.6-16c-11.6-10.6-17.4-25.3-17.4-43.9v-89.7c0-16.8,6.4-30.5,19.1-41.1,12.7-10.6,29.2-15.9,49.4-15.9s36.5,4.9,47.5,14.7c11,9.8,16.6,23.9,16.6,42.3v2.8h0Z"/>
  </g>
</svg>