<?xml version="1.0" encoding="UTF-8"?>
<svg id="Layer_1" xmlns="http://www.w3.org/2000/svg" version="1.1" viewBox="0 0 800 800">
  <!-- Generator: Adobe Illustrator 30.2.1, SVG Export Plug-In . SVG Version: 2.1.1 Build 1)  -->
  <defs>
    <style>
      .st0 {
        fill: #fff;
      }
    </style>
  </defs>
  <g id="icons_Q2">
    <path class="st0" d="M737.5,5H62.9C31.1,3.9,4.5,28.8,3.4,60.5c0,.7,0,1.3,0,2v676.6c0,31.8,25.7,57.6,57.5,57.6.7,0,1.3,0,2,0h674.6c31.8,0,57.5-25.8,57.5-57.5h0V62.5c0-31.8-25.8-57.5-57.5-57.5h0ZM239.4,679.6h-119v-377h119v377ZM179.9,251c-37.6-1.1-67.5-31.9-67.5-69.4,0-37.3,30.2-67.4,67.5-67.4,37.2,0,67.4,30.2,67.4,67.4,0,37.6-29.9,68.4-67.5,69.4h0ZM677.9,679.6h-117.1v-184.5c0-43.7,0-99.2-61.5-99.2s-69.4,47.6-69.4,97.2v186.5h-117.1v-377h111.1v51.6h2c22.8-39.5,65.5-63.2,111.1-61.5,119,0,140.9,77.4,140.9,180.6v206.3Z"/>
  </g>
</svg>